<svg width="32" height="38" viewBox="0 0 32 38" fill="none" xmlns="http://www.w3.org/2000/svg">
<path d="M31.3293 29.606C30.7548 30.9333 30.0748 32.155 29.2868 33.2783C28.2128 34.8096 27.3334 35.8695 26.6557 36.4581C25.6052 37.4243 24.4796 37.9191 23.2742 37.9472C22.4089 37.9472 21.3654 37.701 20.1507 37.2015C18.932 36.7044 17.812 36.4581 16.7879 36.4581C15.7139 36.4581 14.562 36.7044 13.33 37.2015C12.096 37.701 11.102 37.9613 10.342 37.9871C9.18611 38.0363 8.03402 37.5274 6.88403 36.4581C6.15002 35.8179 5.23197 34.7204 4.13213 33.1657C2.95213 31.5054 1.98202 29.5802 1.22198 27.3852C0.408032 25.0145 0 22.7187 0 20.4961C0 17.9501 0.550144 15.7543 1.65206 13.9141C2.51808 12.4361 3.67018 11.2701 5.11213 10.4142C6.55405 9.5583 8.1121 9.12211 9.78995 9.09424C10.708 9.09424 11.9119 9.37821 13.4081 9.93632C14.9 10.4963 15.8579 10.7803 16.2779 10.7803C16.5919 10.7803 17.6561 10.4482 19.4601 9.78624C21.1661 9.17232 22.6059 8.91808 23.7854 9.01824C26.9817 9.27619 29.383 10.5362 30.9799 12.8061C28.1214 14.5382 26.7073 16.9641 26.7355 20.0761C26.7612 22.5002 27.6406 24.5173 29.3689 26.119C30.1521 26.8624 31.0268 27.4369 32 27.8449C31.789 28.457 31.5662 29.0432 31.3293 29.606V29.606ZM23.9988 0.760032C23.9988 2.65997 23.3047 4.43395 21.9212 6.07594C20.2515 8.02794 18.232 9.15587 16.042 8.97789C16.0127 8.73903 15.9979 8.4986 15.9979 8.25795C15.9979 6.43402 16.7919 4.48202 18.202 2.88602C18.906 2.07792 19.8013 1.40602 20.887 0.870016C21.9704 0.342016 22.9952 0.050016 23.959 0C23.9871 0.253984 23.9988 0.508 23.9988 0.76V0.760032Z" fill="black"/>
</svg>
