<svg width="32" height="32" viewBox="0 0 32 32" fill="none" xmlns="http://www.w3.org/2000/svg">
<path d="M24.4212 7.57886H7.5791V24.421H24.4212V7.57886Z" fill="white"/>
<path d="M24.4209 32.0001L31.9998 24.4211H24.4209V32.0001Z" fill="#EA4335"/>
<path d="M31.9998 7.57886H24.4209V24.421H31.9998V7.57886Z" fill="#FBBC04"/>
<path d="M24.4212 24.4211H7.5791V32.0001H24.4212V24.4211Z" fill="#34A853"/>
<path d="M0 24.4211V29.4738C0 30.8696 1.13053 32.0001 2.52632 32.0001H7.57895V24.4211H0Z" fill="#188038"/>
<path d="M31.9998 7.57895V2.52632C31.9998 1.13053 30.8693 0 29.4735 0H24.4209V7.57895H31.9998Z" fill="#1967D2"/>
<path d="M24.4211 0H2.52632C1.13053 0 0 1.13053 0 2.52632V24.4211H7.57895V7.57895H24.4211V0Z" fill="#4285F4"/>
<path d="M11.0336 20.6441C10.4042 20.2189 9.96836 19.5978 9.73047 18.7768L11.1915 18.1747C11.3242 18.6799 11.5557 19.0715 11.8863 19.3494C12.2147 19.6273 12.6147 19.7641 13.082 19.7641C13.5599 19.7641 13.9705 19.6189 14.3136 19.3283C14.6568 19.0378 14.8294 18.6673 14.8294 18.2189C14.8294 17.7599 14.6484 17.3852 14.2863 17.0947C13.9242 16.8041 13.4694 16.6589 12.9263 16.6589H12.082V15.2125H12.8399C13.3073 15.2125 13.701 15.0862 14.021 14.8336C14.341 14.581 14.501 14.2357 14.501 13.7957C14.501 13.4041 14.3578 13.0925 14.0715 12.8589C13.7852 12.6252 13.4231 12.5073 12.9831 12.5073C12.5536 12.5073 12.2126 12.621 11.9599 12.8504C11.7075 13.0805 11.5177 13.371 11.4084 13.6947L9.96205 13.0925C10.1536 12.5494 10.5052 12.0694 11.021 11.6547C11.5368 11.2399 12.1957 11.0315 12.9957 11.0315C13.5873 11.0315 14.1199 11.1452 14.5915 11.3747C15.0631 11.6041 15.4336 11.922 15.701 12.3262C15.9684 12.7325 16.101 13.1873 16.101 13.6925C16.101 14.2083 15.9768 14.6441 15.7284 15.002C15.4799 15.3599 15.1747 15.6336 14.8126 15.8252V15.9115C15.2801 16.1043 15.6863 16.4209 15.9873 16.8273C16.2926 17.2378 16.4463 17.7283 16.4463 18.301C16.4463 18.8736 16.301 19.3852 16.0105 19.8336C15.7199 20.282 15.3178 20.6357 14.8084 20.8925C14.2968 21.1494 13.722 21.2799 13.0842 21.2799C12.3452 21.282 11.6631 21.0694 11.0336 20.6441V20.6441ZM20.0084 13.3936L18.4042 14.5536L17.602 13.3368L20.4799 11.261H21.5831V21.0525H20.0084V13.3936Z" fill="#4285F4"/>
</svg>
