<svg width="32" height="33" viewBox="0 0 32 33" fill="none" xmlns="http://www.w3.org/2000/svg">
<circle cx="15.9017" cy="16.4295" r="15.257" stroke="#009BC0" stroke-width="1.28933"/>
<path d="M16.3317 9.12329C14.2287 9.12329 13.9666 9.13345 13.1436 9.16826C12.3172 9.20888 11.7582 9.33702 11.2649 9.52851C10.7487 9.7234 10.2812 10.0285 9.89502 10.4226C9.49983 10.8079 9.19454 11.2757 9.00092 11.7925C8.80944 12.2858 8.68129 12.8448 8.64067 13.6712C8.60344 14.4946 8.5957 14.7563 8.5957 16.8592C8.5957 18.9622 8.60586 19.2243 8.64067 20.0473C8.68129 20.8713 8.80944 21.4327 9.00092 21.926C9.19581 22.4422 9.50093 22.9097 9.89502 23.2959C10.2803 23.6911 10.7481 23.9964 11.2649 24.19C11.7582 24.3791 12.3196 24.5096 13.1436 24.5502C13.9671 24.5875 14.2287 24.5952 16.3317 24.5952C18.4346 24.5952 18.6967 24.585 19.5198 24.5502C20.3437 24.5096 20.9051 24.3786 21.3984 24.19C21.9146 23.9951 22.3821 23.69 22.7683 23.2959C23.164 22.911 23.4694 22.4431 23.6624 21.926C23.8515 21.4327 23.982 20.8713 24.0226 20.0473C24.0599 19.2238 24.0676 18.9622 24.0676 16.8592C24.0676 14.7563 24.0575 14.4942 24.0226 13.6712C23.982 12.8472 23.851 12.2829 23.6624 11.7925C23.4675 11.2763 23.1624 10.8088 22.7683 10.4226C22.3834 10.0269 21.9155 9.72154 21.3984 9.52851C20.9051 9.33702 20.3437 9.20888 19.5198 9.16826C18.6963 9.13103 18.4346 9.12329 16.3317 9.12329ZM16.3317 10.5159C18.3969 10.5159 18.6435 10.5261 19.4598 10.5609C20.2127 10.5962 20.6227 10.7219 20.895 10.8283C21.2316 10.9526 21.5362 11.1503 21.7867 11.4071C22.0431 11.6566 22.2401 11.9605 22.3631 12.2964C22.4695 12.5686 22.5952 12.9787 22.6305 13.7316C22.6653 14.5478 22.6754 14.7949 22.6754 16.8597C22.6754 18.9245 22.6653 19.1716 22.6276 19.9879C22.587 20.7408 22.4612 21.1508 22.3553 21.4231C22.2088 21.7862 22.0454 22.0401 21.7755 22.3147C21.5242 22.57 21.2198 22.7668 20.8839 22.8911C20.615 22.9975 20.1992 23.1233 19.4434 23.1586C18.6228 23.1934 18.381 23.2035 16.3104 23.2035C14.2398 23.2035 13.9985 23.1934 13.1769 23.1556C12.424 23.115 12.0087 22.9893 11.7364 22.8834C11.3689 22.7369 11.117 22.5734 10.8471 22.3036C10.5749 22.0314 10.4018 21.7722 10.2683 21.4119C10.16 21.1431 10.0362 20.7272 9.99609 19.9714C9.96852 19.1605 9.95547 18.909 9.95547 16.8481C9.95547 14.7882 9.96852 14.5362 9.99609 13.7152C10.0362 12.9594 10.16 12.5445 10.2683 12.2746C10.4018 11.9066 10.5754 11.6552 10.8471 11.383C11.1165 11.1136 11.3689 10.9395 11.7364 10.8032C12.0087 10.6973 12.4139 10.5715 13.1697 10.5338C13.9903 10.5043 14.2321 10.4937 16.2997 10.4937L16.3317 10.5159ZM16.3317 12.8888C15.8101 12.8886 15.2935 12.9912 14.8116 13.1907C14.3297 13.3902 13.8918 13.6827 13.523 14.0515C13.1542 14.4204 12.8616 14.8583 12.6621 15.3402C12.4626 15.8221 12.36 16.3386 12.3602 16.8602C12.36 17.3818 12.4626 17.8983 12.6621 18.3803C12.8616 18.8622 13.1542 19.3001 13.523 19.6689C13.8918 20.0377 14.3297 20.3302 14.8116 20.5298C15.2935 20.7293 15.8101 20.8319 16.3317 20.8317C16.8533 20.8319 17.3698 20.7293 17.8517 20.5298C18.3336 20.3302 18.7715 20.0377 19.1403 19.6689C19.5092 19.3001 19.8017 18.8622 20.0012 18.3803C20.2007 17.8983 20.3033 17.3818 20.3031 16.8602C20.3033 16.3386 20.2007 15.8221 20.0012 15.3402C19.8017 14.8583 19.5092 14.4204 19.1403 14.0515C18.7715 13.6827 18.3336 13.3902 17.8517 13.1907C17.3698 12.9912 16.8533 12.8886 16.3317 12.8888V12.8888ZM16.3317 19.439C14.9061 19.439 13.7528 18.2857 13.7528 16.8602C13.7528 15.4347 14.9061 14.2814 16.3317 14.2814C17.7572 14.2814 18.9105 15.4347 18.9105 16.8602C18.9105 18.2857 17.7572 19.439 16.3317 19.439ZM21.3916 12.7301C21.3913 12.9766 21.2933 13.2129 21.1189 13.387C20.9445 13.5612 20.7082 13.6591 20.4617 13.6591C20.3399 13.6591 20.2192 13.6351 20.1066 13.5884C19.994 13.5418 19.8917 13.4734 19.8056 13.3873C19.7194 13.3011 19.651 13.1988 19.6044 13.0862C19.5578 12.9736 19.5338 12.853 19.5338 12.7311C19.5338 12.6093 19.5578 12.4886 19.6044 12.376C19.651 12.2634 19.7194 12.1611 19.8056 12.075C19.8917 11.9888 19.994 11.9204 20.1066 11.8738C20.2192 11.8272 20.3399 11.8032 20.4617 11.8032C20.9728 11.8032 21.3916 12.219 21.3916 12.7301V12.7301Z" fill="#009BC0"/>
</svg>
