<svg width="32" height="33" viewBox="0 0 32 33" fill="none" xmlns="http://www.w3.org/2000/svg">
<circle cx="16.0985" cy="16.5701" r="15.257" stroke="#009BC0" stroke-width="1.28933"/>
<path d="M12.2557 24.7355H9.04804V14.4059H12.2557V24.7355ZM10.6501 12.9969C9.62444 12.9969 8.79248 12.1473 8.79248 11.1216C8.79248 10.6289 8.9882 10.1564 9.33658 9.80801C9.68496 9.45963 10.1575 9.26392 10.6501 9.26392C11.1428 9.26392 11.6153 9.45963 11.9637 9.80801C12.3121 10.1564 12.5078 10.6289 12.5078 11.1216C12.5078 12.1473 11.6755 12.9969 10.6501 12.9969ZM24.2609 24.7355H21.0602V19.7071C21.0602 18.5087 21.036 16.9719 19.3925 16.9719C17.7247 16.9719 17.4692 18.2739 17.4692 19.6208V24.7355H14.265V14.4059H17.3414V15.815H17.3863C17.8145 15.0034 18.8606 14.1469 20.4213 14.1469C23.6676 14.1469 24.2644 16.2846 24.2644 19.0613V24.7355H24.2609Z" fill="#009BC0"/>
</svg>
