<svg width="32" height="30" viewBox="0 0 32 30" fill="none" xmlns="http://www.w3.org/2000/svg">
<path d="M31.9999 15.6278C32.0008 15.5048 31.9699 15.3836 31.9102 15.2761C31.8504 15.1685 31.764 15.0782 31.6591 15.0138H31.6554L31.642 15.0064L20.5536 8.44268C20.5057 8.41034 20.456 8.38077 20.4048 8.35413C20.1938 8.24528 19.9598 8.18848 19.7223 8.18848C19.4849 8.18848 19.2509 8.24528 19.0399 8.35413C18.9887 8.38078 18.939 8.41034 18.8911 8.44268L7.80274 15.0064L7.78935 15.0138C7.45046 15.2246 7.34656 15.6702 7.55731 16.0091C7.6194 16.1089 7.70493 16.1921 7.80646 16.2514L18.8948 22.8151C18.9429 22.8472 18.9926 22.8768 19.0437 22.9037C19.2547 23.0126 19.4887 23.0694 19.7261 23.0694C19.9635 23.0694 20.1975 23.0126 20.4085 22.9037C20.4596 22.8768 20.5093 22.8472 20.5574 22.8151L31.6457 16.2514C31.7545 16.188 31.8446 16.0969 31.9068 15.9873C31.9691 15.8778 32.0012 15.7538 31.9999 15.6278V15.6278Z" fill="#0A2767"/>
<path d="M9.09526 11.2454H16.3719V17.9155H9.09526V11.2454ZM30.5114 4.46511V1.41395C30.5289 0.651085 29.9251 0.0182799 29.1622 0H10.2793C9.51641 0.0182799 8.91258 0.651085 8.93006 1.41395V4.46511L20.0928 7.44185L30.5114 4.46511Z" fill="#0364B8"/>
<path d="M8.93018 4.46509H16.372V11.1628H8.93018V4.46509Z" fill="#0078D4"/>
<path d="M23.8139 4.46509H16.3721V11.1628L23.8139 17.8604H30.5116V11.1628L23.8139 4.46509Z" fill="#28A8EA"/>
<path d="M16.3721 11.1628H23.8139V17.8605H16.3721V11.1628Z" fill="#0078D4"/>
<path d="M16.3721 17.8604H23.8139V24.558H16.3721V17.8604Z" fill="#0364B8"/>
<path d="M9.09521 17.9155H16.3719V23.9791H9.09521V17.9155Z" fill="#14447D"/>
<path d="M23.814 17.8604H30.5116V24.558H23.814V17.8604Z" fill="#0078D4"/>
<path d="M31.6592 16.2106L31.645 16.2181L20.5567 22.4543C20.5083 22.4841 20.4592 22.5124 20.4078 22.5377C20.2195 22.6274 20.015 22.678 19.8065 22.6865L19.2008 22.3323C19.1496 22.3066 19.0999 22.278 19.0519 22.2467L7.81473 15.8333H7.80952L7.44189 15.6279V28.2523C7.44763 29.0946 8.13487 29.7728 8.97714 29.7675H30.4886C30.5012 29.7675 30.5124 29.7615 30.5258 29.7615C30.7037 29.7501 30.8791 29.7135 31.0467 29.6529C31.1191 29.6222 31.1891 29.5858 31.2558 29.5442C31.3057 29.5159 31.3913 29.4542 31.3913 29.4542C31.5793 29.315 31.7322 29.134 31.8379 28.9253C31.9436 28.7166 31.9991 28.4862 32 28.2523V15.6279C31.9999 15.7465 31.9683 15.863 31.9084 15.9654C31.8485 16.0677 31.7625 16.1524 31.6592 16.2106V16.2106Z" fill="url(#paint0_linear_39_978)"/>
<path opacity="0.5" d="M31.4047 15.5779V16.3519L19.8103 24.3348L7.80659 15.8384C7.80659 15.8364 7.8058 15.8345 7.80441 15.8331C7.80301 15.8317 7.80112 15.8309 7.79914 15.8309L6.69775 15.1686V14.6105L7.15171 14.603L8.1117 15.1537L8.13402 15.1612L8.21587 15.2133C8.21587 15.2133 19.4977 21.6505 19.5275 21.6653L19.9591 21.9184C19.9963 21.9035 20.0335 21.8886 20.0782 21.8737C20.1005 21.8588 31.2782 15.5705 31.2782 15.5705L31.4047 15.5779Z" fill="#0A2767"/>
<path d="M31.6592 16.2106L31.645 16.2188L20.5567 22.4551C20.5083 22.4848 20.4592 22.5131 20.4078 22.5384C20.1953 22.6422 19.9619 22.6962 19.7254 22.6962C19.4889 22.6962 19.2555 22.6422 19.043 22.5384C18.992 22.5132 18.9423 22.4854 18.8941 22.4551L7.8058 16.2188L7.79241 16.2106C7.68729 16.1536 7.59934 16.0695 7.5377 15.9671C7.47607 15.8646 7.44298 15.7475 7.44189 15.6279V28.2523C7.44722 29.0944 8.13422 29.7728 8.97634 29.7675H30.4655C31.3076 29.7728 31.9946 29.0945 32 28.2524C32 28.2523 32 28.2524 32 28.2524V15.6279C31.9999 15.7465 31.9682 15.863 31.9084 15.9654C31.8485 16.0677 31.7625 16.1524 31.6592 16.2106V16.2106Z" fill="#1490DF"/>
<path opacity="0.1" d="M20.7181 22.3628L20.5521 22.4558C20.504 22.4864 20.4543 22.5145 20.4033 22.5399C20.2205 22.6297 20.0216 22.6823 19.8184 22.6947L24.0371 27.6837L31.3964 29.4571C31.5981 29.3048 31.7585 29.1045 31.863 28.8744L20.7181 22.3628Z" fill="black"/>
<path opacity="0.05" d="M21.4697 21.9402L20.5521 22.4559C20.504 22.4865 20.4543 22.5146 20.4033 22.54C20.2205 22.6297 20.0216 22.6823 19.8184 22.6948L21.7949 28.1445L31.3986 29.455C31.5852 29.3149 31.7367 29.1333 31.8411 28.9246C31.9454 28.7158 31.9998 28.4857 31.9999 28.2524V28.0894L21.4697 21.9402Z" fill="black"/>
<path d="M8.99724 29.7674H30.4633C30.7936 29.7691 31.1157 29.6648 31.3823 29.4698L19.2 22.3338C19.1488 22.3081 19.0991 22.2795 19.0512 22.2482L7.81398 15.8348H7.80877L7.4419 15.6279V28.2091C7.44106 29.0689 8.1374 29.7666 8.99724 29.7674C8.99722 29.7674 8.99722 29.7674 8.99724 29.7674Z" fill="#28A8EA"/>
<path opacity="0.1" d="M17.8605 7.3177V23.1912C17.8592 23.7477 17.5208 24.248 17.0047 24.4563C16.8448 24.525 16.6726 24.5605 16.4986 24.5605H7.44189V6.69779H8.93027V5.95361H16.4986C17.2504 5.95646 17.8589 6.56588 17.8605 7.3177V7.3177Z" fill="black"/>
<path opacity="0.2" d="M17.1163 8.06166V23.9351C17.1182 24.1149 17.0801 24.2928 17.0047 24.4561C16.798 24.9655 16.3042 25.2997 15.7544 25.3022H7.44189V6.69757H15.7544C15.9704 6.69541 16.1832 6.74926 16.3721 6.85386C16.8283 7.08369 17.1161 7.55085 17.1163 8.06166V8.06166Z" fill="black"/>
<path opacity="0.2" d="M17.1163 8.06166V22.4468C17.1127 23.1982 16.5059 23.8073 15.7545 23.8138H7.44189V6.69757H15.7544C15.9704 6.69541 16.1832 6.74926 16.3721 6.85386C16.8283 7.08369 17.1161 7.55085 17.1163 8.06166V8.06166Z" fill="black"/>
<path opacity="0.2" d="M16.3721 8.06184V22.4469C16.3713 23.1996 15.7629 23.8103 15.0103 23.814H7.44189V6.69775H15.0103C15.7628 6.69816 16.3725 7.30856 16.3721 8.06111C16.3721 8.06135 16.3721 8.0616 16.3721 8.06184V8.06184Z" fill="black"/>
<path d="M1.36409 6.69775H15.008C15.7614 6.69775 16.3721 7.30849 16.3721 8.06184V21.7057C16.3721 22.4591 15.7614 23.0698 15.008 23.0698H1.36409C0.610716 23.0698 0 22.4591 0 21.7057V8.06184C0 7.30849 0.610733 6.69775 1.36409 6.69775Z" fill="url(#paint1_linear_39_978)"/>
<path d="M4.2634 12.4191C4.59959 11.7028 5.14228 11.1033 5.82173 10.6978C6.57419 10.267 7.43095 10.0522 8.29764 10.0771C9.10093 10.0597 9.89356 10.2633 10.589 10.6658C11.2428 11.0557 11.7694 11.627 12.1049 12.3104C12.4702 13.0635 12.6523 13.8922 12.6362 14.729C12.654 15.6036 12.4666 16.4701 12.0893 17.2593C11.7458 17.9671 11.2025 18.5588 10.5265 18.9612C9.80424 19.376 8.98218 19.585 8.14955 19.5655C7.3291 19.5853 6.51898 19.3794 5.80759 18.9701C5.14809 18.5797 4.61487 18.0077 4.27159 17.3225C3.90412 16.5804 3.71987 15.7609 3.73429 14.9329C3.71899 14.0658 3.89986 13.2065 4.2634 12.4191V12.4191ZM5.92442 16.46C6.10368 16.9129 6.40764 17.3056 6.80107 17.5927C7.20178 17.8727 7.68162 18.0172 8.17036 18.0049C8.69086 18.0255 9.2039 17.8761 9.63195 17.5793C10.0204 17.2931 10.3164 16.8993 10.4833 16.4466C10.6699 15.9411 10.762 15.4055 10.7549 14.8667C10.7607 14.3227 10.6741 13.7817 10.4989 13.2667C10.3442 12.8017 10.0577 12.3917 9.67436 12.0864C9.25704 11.7755 8.74537 11.6179 8.22543 11.6399C7.7261 11.627 7.23552 11.7726 6.82414 12.0559C6.42406 12.3442 6.11432 12.7404 5.93111 13.1982C5.52471 14.2477 5.52259 15.4106 5.92515 16.4615L5.92442 16.46Z" fill="white"/>
<path d="M23.814 4.46509H30.5116V11.1628H23.814V4.46509Z" fill="#50D9FF"/>
<defs>
<linearGradient id="paint0_linear_39_978" x1="19.721" y1="15.6279" x2="19.721" y2="29.7675" gradientUnits="userSpaceOnUse">
<stop stop-color="#35B8F1"/>
<stop offset="1" stop-color="#28A8EA"/>
</linearGradient>
<linearGradient id="paint1_linear_39_978" x1="2.84416" y1="5.63188" x2="13.5279" y2="24.1357" gradientUnits="userSpaceOnUse">
<stop stop-color="#1784D9"/>
<stop offset="0.5" stop-color="#107AD5"/>
<stop offset="1" stop-color="#0A63C9"/>
</linearGradient>
</defs>
</svg>
