<svg width="87" height="78" viewBox="0 0 87 78" fill="none" xmlns="http://www.w3.org/2000/svg">
<rect width="87" height="78" fill="#132230"/>
<path d="M40.2068 24.4268C41.9172 24.7056 43.2279 25.347 44.1389 26.351C45.0499 27.3363 45.5054 28.5634 45.5054 30.0321C45.5054 31.1662 45.2079 32.2166 44.613 33.1834C44.018 34.1315 43.107 34.8938 41.88 35.4701C40.6715 36.0465 39.1842 36.3346 37.418 36.3346C36.0423 36.3346 34.6851 36.158 33.3465 35.8048C32.0265 35.433 30.9017 34.9124 29.9721 34.2431L31.729 30.7851C32.4727 31.3428 33.3279 31.7797 34.2946 32.0958C35.28 32.3932 36.2839 32.542 37.3065 32.542C38.4406 32.542 39.333 32.3282 39.9837 31.9006C40.6344 31.4544 40.9597 30.8315 40.9597 30.0321C40.9597 28.4332 39.742 27.6338 37.3065 27.6338H35.2428V24.6499L39.2586 20.1042H30.9482V16.4789H44.613V19.407L40.2068 24.4268ZM55.1208 16.4789V36H50.6031V20.1042H46.6988V16.4789H55.1208Z" fill="white"/>
<path d="M33.9892 65L33.973 57.4518L30.2314 63.6986H29.2879L25.5463 57.5494V65H23.5292V53.6127H25.2698L29.7922 61.1608L34.2332 53.6127H35.9739L35.9901 65H33.9892ZM46.4515 62.3646H40.7578L39.6354 65H37.4555L42.5798 53.6127H44.662L49.8026 65H47.5902L46.4515 62.3646ZM45.752 60.7054L43.6047 55.7275L41.4736 60.7054H45.752ZM58.7014 65L56.3751 61.6651C56.2775 61.676 56.1311 61.6814 55.9359 61.6814H53.3656V65H51.2508V53.6127H55.9359C56.9228 53.6127 57.7795 53.7754 58.5062 54.1007C59.2436 54.4261 59.8076 54.8924 60.198 55.4997C60.5884 56.107 60.7836 56.8282 60.7836 57.6633C60.7836 58.5201 60.5721 59.2575 60.1492 59.8757C59.7371 60.4939 59.1406 60.9548 58.3597 61.2585L60.9788 65H58.7014ZM58.6526 57.6633C58.6526 56.9367 58.414 56.3782 57.9368 55.9877C57.4596 55.5973 56.7601 55.4021 55.8383 55.4021H53.3656V59.9408H55.8383C56.7601 59.9408 57.4596 59.7456 57.9368 59.3551C58.414 58.9539 58.6526 58.3899 58.6526 57.6633Z" fill="white"/>
</svg>
