<svg width="33" height="33" viewBox="0 0 33 33" fill="none" xmlns="http://www.w3.org/2000/svg">
<circle cx="16.3006" cy="16.4295" r="15.257" stroke="#009BC0" stroke-width="1.28933"/>
<path d="M24.4665 11.4713C24.0425 12.1029 23.506 12.6654 22.883 13.1154C22.8917 13.2452 22.8917 13.3836 22.8917 13.5221C22.8917 17.7189 19.6986 22.556 13.8664 22.556C12.0752 22.556 10.4051 22.0282 8.99463 21.1282C9.24557 21.1542 9.49651 21.1715 9.75611 21.1715C11.2445 21.1715 12.6117 20.661 13.6933 19.8129C13.0316 19.7993 12.3908 19.5792 11.8602 19.1837C11.3296 18.7881 10.9359 18.2366 10.7339 17.6064C10.9243 17.641 11.1233 17.6669 11.331 17.6669C11.6165 17.6669 11.9021 17.6237 12.1617 17.5545C11.444 17.4071 10.7991 17.0168 10.3356 16.4494C9.8722 15.8819 9.61862 15.172 9.61766 14.4393V14.4047C10.0503 14.6383 10.5349 14.7854 11.0541 14.8027C10.6195 14.5112 10.2635 14.1171 10.0175 13.6553C9.77148 13.1935 9.64307 12.6781 9.64362 12.1549C9.64362 11.5751 9.79938 11.0299 10.0763 10.5627C11.6425 12.4837 13.9789 13.747 16.6181 13.8768C16.5662 13.6432 16.5316 13.4009 16.5316 13.15C16.5339 12.3092 16.8694 11.5037 17.4648 10.91C18.0601 10.3163 18.8665 9.98291 19.7073 9.98291C20.6245 9.98291 21.4466 10.3637 22.0263 10.9867C22.7446 10.8396 23.4282 10.58 24.0425 10.2165C23.8002 10.9521 23.2984 11.5751 22.6407 11.9645C23.2712 11.8956 23.8871 11.7292 24.4665 11.4713V11.4713Z" fill="#009BC0"/>
</svg>
